# xmcd
#
# Track frame offsets: 
#        182
#        17475
#        34512
#        51552
#        67415
#        84257
#        98650
#        116190
#        138535
#        154887
#        178740
#        194137
#        215280
#        234765
#        253090
#
# Disc length: 3552 seconds
#
# Revision: 2
# Processed by: cddbd v1.5.2PL0 Copyright (c) Steve Scherf et al.
# Submitted via: ExactAudioCopyFreeDBPlugin 1.0
#
DISCID=d70dde0f
DTITLE=Mike Ness - Cheating At Solitaire
DYEAR=1999
DGENRE=Countryrock
TTITLE0=The Devil In Miss Jones
TTITLE1=Don't Think Twice
TTITLE2=Misery Loves Company
TTITLE3=Crime Don't Pay
TTITLE4=Rest Of Our Lives
TTITLE5=You Win Again
TTITLE6=Cheating At Solitaire
TTITLE7=No Man's Friend
TTITLE8=Charmed Life
TTITLE9=Dope Fiend Blues
TTITLE10=Ballad Of A Lonely Man
TTITLE11=I'm In Love With My Car
TTITLE12=If You Leave Before Me
TTITLE13=Long Black Veil
TTITLE14=Send Her Back
EXTD=(c)1999 Time Bomb Recordings/BMG\nProduced by James Saez and Mike
EXTD=Ness\nupc 743216632527
EXTT0=
EXTT1=
EXTT2=
EXTT3=
EXTT4=
EXTT5=
EXTT6=
EXTT7=
EXTT8=
EXTT9=
EXTT10=
EXTT11=
EXTT12=
EXTT13=
EXTT14=
PLAYORDER=
